<svg viewBox="0 0 1024 1024" height="1024" width="1024" version="1.1" fill="none" xmlns:xlink="http://www.w3.org/1999/xlink" xmlns="http://www.w3.org/2000/svg"><defs><clipPath id="master_svg0_4_984"><rect rx="0" height="1024" width="1024" y="0" x="0"></rect></clipPath></defs><g clip-path="url(#master_svg0_4_984)"><g><g><path style="mix-blend-mode:passthrough" fill-opacity="1" fill="#D3DAFB" d="M844.0000671386719,76.91999816894531L774.0000671386719,174.9999981689453L709.2000671386719,146.59999816894532L800.0000671386719,97.59999816894532L679.4000671386718,133.59999816894532L633.1000671386719,113.3999981689453L844.0000671386719,76.91999816894531Z"></path></g><g><path style="mix-blend-mode:passthrough" fill-opacity="1" fill="#3541DF" d="M799.9999938964844,97.62000274658203L709.1999938964843,146.62000274658203L692.1999938964843,193.52000274658204L679.3999938964844,133.62000274658203L799.9999938964844,97.62000274658203Z"></path></g><g><path style="mix-blend-mode:passthrough" fill-opacity="1" fill="#111111" d="M709.2000427246094,146.6199951171875L737.1000427246094,158.9199951171875L692.2000427246094,193.5199951171875L709.2000427246094,146.6199951171875Z"></path></g><g><path style="mix-blend-mode:passthrough" fill-opacity="1" fill="#111111" d="M773.9997985839843,176.00031048583986C773.8587985839844,176.01531048583985,773.7167985839844,175.97931048583985,773.5997985839844,175.90031048583984L708.7999985839843,147.50001048583982C708.3971985839844,147.22901048583986,708.2471985839844,146.70781048583984,708.4443985839844,146.26421048583984C708.6414985839843,145.82061048583984,709.1288985839844,145.58261048583984,709.5998985839843,145.70001048583984L773.6997985839844,173.70001048583984L841.8997985839844,78.20000048583984L636.5999485839844,113.70001048583984L679.7999985839843,132.60001048583985C680.2026985839843,132.87101048583986,680.3526985839844,133.39211048583985,680.1554985839844,133.83581048583983C679.9583985839844,134.27941048583983,679.4709985839844,134.51741048583983,678.9999985839844,134.40001048583986L632.7999575839843,114.20001048583984C632.4252015839844,114.00881048583985,632.1923522939844,113.62061048583985,632.1999816889844,113.20001048583984C632.2896423839844,112.78011048583984,632.5934755839844,112.43831048583985,632.9999695839844,112.30001048583983L843.8997985839844,75.79999538583985C844.2827985839843,75.72710418583985,844.6727985839843,75.88320948583984,844.8997985839844,76.19999648583985C845.1007985839844,76.53919948583984,845.1007985839844,76.96080048583984,844.8997985839844,77.29999048583984L774.8997985839844,175.40001048583986C774.7107985839843,175.73041048583985,774.3777985839844,175.95231048583986,773.9997985839843,176.00031048583986Z"></path></g><g><path style="mix-blend-mode:passthrough" fill-opacity="1" fill="#111111" d="M692.2000919433593,194.42004514160158C691.7172919433593,194.42974514160156,691.2964919433593,194.09314514160155,691.2000919433593,193.61994514160156L678.3000183433594,133.81994514160158C678.2152404433593,133.30384514160156,678.5090029433594,132.80024514160158,679.0000309433593,132.61994514160156L799.6004919433594,96.61999514160156C800.0944919433593,96.48220014160157,800.6134919433593,96.74153114160156,800.8004919433594,97.21999314160156C801.0014919433594,97.66306514160156,800.8264919433593,98.18624514160156,800.4004919433594,98.41999514160156L709.9999919433594,147.32004514160155L693.2000919433593,193.82004514160155C693.0298919433594,194.21374514160158,692.6275919433593,194.45514514160158,692.2000919433593,194.42004514160158ZM680.5000319433594,134.32004514160155L692.4999919433594,189.92004514160158L708.2999919433594,146.32004514160155C708.3825919433593,146.08634514160156,708.5663919433593,145.90254514160156,708.7999919433594,145.82004514160155L791.2004919433593,101.42000514160156L680.5000319433594,134.32004514160155Z"></path></g><g><path style="mix-blend-mode:passthrough" fill-opacity="1" fill="#111111" d="M692.1999806542968,194.4200267578125C691.8816836542969,194.4359267578125,691.5782166542969,194.2842267578125,691.3999936542968,194.0200267578125C691.0686336542968,193.5781267578125,691.1581726542969,192.9513267578125,691.6000056542969,192.6200267578125L736.4999206542968,157.9999997578125C736.9418206542969,157.6686097578125,737.5686206542969,157.7581481578125,737.9000206542969,158.1999967578125C738.2314206542969,158.6418147578125,738.1419206542969,159.2686467578125,737.7000206542968,159.6000067578125L692.7999606542969,194.2000267578125C692.6999806542968,194.4200267578125,692.4999706542969,194.4200267578125,692.1999806542968,194.4200267578125Z"></path></g><g><path style="mix-blend-mode:passthrough" fill-opacity="1" fill="#3541DF" d="M934.6000229980468,361.9200009643555C941.6607229980468,369.53590096435545,945.5888229980469,379.53480096435544,945.6000229980468,389.9200009643555C945.6298229980468,400.4101009643555,941.6190229980468,410.5088009643555,934.4000229980469,418.1200009643555C928.1352229980469,424.78590096435545,919.8341229980468,429.1827009643555,910.8000229980469,430.6200009643555C908.6478229980469,430.93940096435546,906.4758229980469,431.10650096435546,904.3000229980469,431.1200009643555C881.5321229980469,431.15320096435545,863.0668029980469,412.6879009643555,863.1000061030469,389.9200009643555C863.0745543980469,381.6789009643555,865.5502629980468,373.6241009643555,870.1999829980468,366.8200009643555C885.0952229980469,344.8554309643555,916.5531229980469,342.46187096435546,934.6000229980468,361.9200009643555Z"></path></g><g><path style="mix-blend-mode:passthrough" fill-opacity="1" fill="#111111" d="M904.4001026855469,433.11993758544924C872.5954026855469,432.90753758544923,852.2207326855469,399.1940375854492,866.8201626855468,370.9373375854492C881.4196026855469,342.6806875854492,920.7055026855469,339.7921675854492,939.2808026855469,365.60953758544923C957.8561026855468,391.4270375854492,942.6316026855469,427.7580375854492,911.2000026855469,432.61993758544924C908.9472026855469,432.9393375854492,906.6754026855468,433.10633758544924,904.4001026855469,433.11993758544924ZM904.4001026855469,350.7199975854492C882.7413026855469,350.6794075854492,865.1541426855468,368.2112375854492,865.1265526855469,389.86993758544924C865.0989026855468,411.5287375854492,882.6413026855469,429.1053375854492,904.3001026855469,429.11993758544924C906.3760026855468,429.1025375854492,908.4481026855469,428.9354375854492,910.5001026855468,428.61993758544924C919.0672026855468,427.2095375854492,926.9356026855469,423.0293375854492,932.9001026855469,416.72003758544923C943.5676026855468,405.3331375854492,946.4662026855469,388.7040375854492,940.2806026855469,374.3795375854492C934.0950026855469,360.05493758544924,920.0031026855469,350.7627775854492,904.4001026855469,350.7199975854492Z"></path></g><g><path style="mix-blend-mode:passthrough" fill-opacity="1" fill="#111111" d="M904.3999891699219,391.92000911865233C903.8420091699219,391.91750911865233,903.3058161699219,391.70300911865235,902.8999941699219,391.32000911865237C902.1243591699218,390.53060911865236,902.1700131699218,389.2520091186523,902.9999691699219,388.52000911865235L933.1999491699219,360.52001211865235C933.9665491699219,359.57933811865234,935.3873491699219,359.53246311865234,936.2142491699219,360.42058611865235C937.0411491699218,361.30870911865236,936.8929491699218,362.7225591186523,935.8999491699219,363.42000911865233L905.6999791699219,391.42000911865233C905.3456091699219,391.7452091186523,904.8810091699219,391.9239091186523,904.3999891699219,391.92000911865233Z"></path></g><g><path style="mix-blend-mode:passthrough" fill-opacity="1" fill="#111111" d="M887.4000741699218,445.82002440185545C884.6019741699218,445.80962440185544,881.8391741699219,445.19562440185547,879.3000741699219,444.0200244018555C872.8524441699219,441.1136244018555,868.6230771699219,434.78892440185547,868.4000551699219,427.7200244018555C868.2174377699218,422.95312440185546,868.2842101699218,418.17995440185547,868.6000671699219,413.42003440185545C868.4300841699219,412.15847440185547,869.4663341699219,411.06124110185544,870.7355641699219,411.1588668818555C872.0047941699219,411.2564924018555,872.8609941699219,412.4992944018555,872.5000941699219,413.7200244018555C872.1343041699218,418.3108444018555,872.0674741699219,422.9206244018555,872.3000841699219,427.5200244018555C872.5277441699219,433.08862440185544,875.8420741699218,438.0653244018555,880.8924741699219,440.42212440185546C885.9427741699219,442.77902440185545,891.8859741699218,442.1224244018555,896.3000741699219,438.7200244018555C900.8000741699219,435.32002440185545,905.3000741699219,432.0200244018555,909.7000741699219,429.0200244018555C910.6113741699219,428.38722440185546,911.8628741699218,428.6118244018555,912.4971741699219,429.52202440185545C913.1315741699219,430.4322244018555,912.9091741699219,431.6840244018555,912.0000741699218,432.32002440185545C907.7000741699219,435.32002440185545,903.2000741699219,438.5200244018555,898.8000741699219,441.92002440185547C895.5336741699218,444.4408244018555,891.5260741699219,445.81182440185546,887.4000741699218,445.82002440185545Z"></path></g><g><path style="mix-blend-mode:passthrough" fill-opacity="1" fill="#FFFFFF" d="M218.99990063476562,234.7196845703125Q107.21000063476562,235.6196845703125,96.00000063476563,232.81968457031252C84.80000063476562,230.0196845703125,71.50000063476563,207.7199845703125,83.90000063476563,181.7199845703125Q96.31000063476563,155.7199845703125,115.30000063476562,163.3199845703125Q113.70000063476562,126.9300045703125,152.70000063476562,128.8200073703125Q191.69990063476564,130.7100045703125,190.09990063476562,172.3199845703125Q219.49990063476562,173.7299845703125,215.79990063476563,200.7199845703125Q229.48990063476563,195.0199845703125,236.6999006347656,214.9199845703125Q243.90990063476562,234.81968457031252,218.99990063476562,234.7196845703125Z"></path></g><g><path style="mix-blend-mode:passthrough" fill-opacity="1" fill="#3541DF" d="M217.80050073242188,231.91954345703124C210.40050073242188,231.91954345703124,202.9995007324219,232.01954345703126,195.6005007324219,232.01954345703126L148.8000007324219,232.01954345703126C134.50000073242188,231.91954345703124,120.20000073242187,231.91954345703124,105.90000073242187,231.11954345703126C102.28600073242188,231.02254345703125,98.68020073242187,230.72254345703124,95.10000073242188,230.21954345703125C94.60000073242188,230.11954345703126,95.30000073242188,230.31954345703124,95.00000073242188,230.21954345703125C94.54130073242187,230.06054345703126,94.07390073242188,229.92654345703124,93.60000073242188,229.81954345703124C92.69330073242187,229.43154345703124,91.82320073242187,228.96354345703125,91.00000073242188,228.41954345703124C89.10810073242187,227.14754345703125,87.45040073242187,225.55724345703123,86.10000073242188,223.72004345703124C82.90710073242188,219.10414345703126,81.00803073242187,213.71774345703125,80.60000073242188,208.12004345703124C80.14252073242187,200.19694345703124,81.69023073242188,192.28644345703125,85.10000073242188,185.12004345703124C87.67380073242188,179.15834345703126,91.69540073242187,173.93364345703125,96.80000073242188,169.92004345703126C100.06900073242187,167.55664345703124,103.89200073242188,166.07564345703125,107.90000073242187,165.62004345703124C109.33160073242188,165.52004345703125,110.76840073242187,165.52004345703125,112.20000073242187,165.62004345703124C112.77880073242187,165.63074345703126,113.35240073242187,165.73194345703126,113.90000073242187,165.92004345703126L114.50000073242188,166.02004345703125C114.60990073242188,166.00684345703127,114.72000073242188,166.04354345703126,114.80000073242188,166.12004345703124C115.17790073242188,166.17314345703124,115.54750073242187,166.27394345703124,115.90000073242187,166.42004345703126C116.14620073242187,166.53034345703125,116.43340073242187,166.49374345703126,116.64410073242188,166.32514345703126C116.85480073242186,166.15664345703124,116.95350073242187,165.88444345703124,116.90000073242187,165.62004345703124C116.80470073242188,161.58664345703124,117.37920073242188,157.56544345703125,118.60000073242188,153.72004345703124C120.93380073242187,145.52944345703125,126.69460073242188,138.74774345703125,134.40000073242186,135.12004345703124C140.15210073242187,132.71647345703124,146.37650073242187,131.65626345703126,152.60000073242188,132.02003345703125C158.88110073242188,132.06445345703125,165.07010073242188,133.53476345703126,170.70000073242187,136.32003345703126C172.91060073242187,137.53384345703125,174.98850073242187,138.97494345703126,176.89950073242187,140.62004345703124C177.69950073242188,141.32004345703126,178.39950073242187,142.12004345703124,179.19950073242188,142.92004345703126C179.64350073242187,143.32084345703126,180.01550073242186,143.79424345703126,180.30050073242188,144.32004345703126L180.69950073242188,145.02004345703125L180.9995007324219,145.42004345703126C181.30050073242188,145.82004345703126,181.6005007324219,146.32004345703126,181.9995007324219,146.82004345703126L182.39950073242187,147.52004345703125C182.4995007324219,147.82004345703126,182.89950073242187,148.32004345703126,182.4995007324219,147.82004345703126C182.9995007324219,148.72004345703124,183.6005007324219,149.82004345703126,184.1005007324219,150.82004345703126C184.20050073242186,150.92004345703126,184.4995007324219,151.72004345703124,184.20050073242186,151.12004345703124L184.50050073242187,151.82004345703126C184.70050073242186,152.32004345703126,184.90050073242188,152.92004345703126,185.1005007324219,153.42004345703126L185.50050073242187,154.82004345703126C185.50050073242187,154.92004345703126,185.80050073242188,155.72004345703124,185.70050073242186,155.32004345703126C185.6005007324219,154.92004345703126,185.80050073242188,155.72004345703124,185.80050073242188,155.82004345703126C186.1005007324219,156.72004345703124,186.30050073242188,157.72004345703124,186.6005007324219,158.62004345703124C186.70050073242186,159.02004345703125,186.80050073242188,159.52004345703125,186.90050073242188,160.02004345703125L187.00050073242187,160.52004345703125C187.1005007324219,160.92004345703126,186.90050073242188,160.12004345703124,187.00050073242187,160.82004345703126C187.29850073242187,162.37254345703124,187.49850073242186,163.94234345703126,187.6005007324219,165.52004345703125C187.70050073242186,166.22004345703124,187.70050073242186,166.92004345703126,187.80050073242188,167.52004345703125C187.78350073242189,167.79054345703125,187.81750073242188,168.06184345703124,187.90050073242188,168.32004345703126C188.00050073242187,168.62004345703124,187.90050073242188,168.62004345703124,187.90050073242188,168.72004345703124L187.90050073242188,170.82004345703126C187.80050073242188,172.62004345703124,189.20050073242186,175.72004345703124,190.80050073242188,175.82004345703126C193.8075007324219,175.97504345703123,196.7735007324219,176.58184345703125,199.6005007324219,177.62004345703124C202.25050073242187,178.44514345703124,204.7495007324219,179.69464345703125,207.00050073242187,181.32004345703126C208.17750073242186,182.11884345703123,209.25150073242187,183.05924345703124,210.2005007324219,184.12004345703124C210.44050073242187,184.41134345703125,210.70850073242187,184.67914345703124,211.00050073242187,184.92004345703126C211.30050073242188,185.22004345703124,211.2005007324219,185.22004345703124,211.40050073242188,185.42004345703126C211.59850073242188,185.83144345703124,211.86950073242187,186.20404345703125,212.2005007324219,186.52004345703125C212.30050073242188,186.62004345703124,212.50050073242187,187.02004345703125,212.2005007324219,186.52004345703125L212.60050073242186,187.22004345703124C212.90250073242188,187.83774345703125,213.16950073242188,188.47204345703125,213.40050073242188,189.12004345703124C213.61450073242187,189.97674345703126,213.78150073242188,190.84474345703126,213.90050073242188,191.72004345703124C214.21650073242188,194.24584345703124,214.18350073242186,196.80334345703125,213.80050073242188,199.32004345703126C213.60050073242186,200.92004345703126,215.40050073242188,204.92004345703126,217.00050073242187,204.22004345703124C217.2005007324219,204.12004345703124,216.80050073242188,204.22004345703124,217.2005007324219,204.12004345703124C217.60050073242186,204.02004345703125,218.2005007324219,203.82004345703126,218.7005007324219,203.72004345703124C220.2185007324219,203.42004345703126,221.78150073242188,203.42004345703126,223.30050073242188,203.72004345703124C227.90050073242188,204.52004345703125,232.00050073242187,208.02004345703125,234.2005007324219,213.32004345703126C236.00050073242187,217.42004345703126,237.00050073242187,222.42004345703126,233.90050073242188,226.22004345703124C231.45150073242186,228.94254345703126,228.18950073242186,230.80054345703127,224.60050073242186,231.51954345703126C222.30550073242188,232.07154345703125,219.95850073242187,232.37354345703125,217.60050073242186,232.41954345703124C215.99950073242186,232.41954345703124,218.2005007324219,238.41954345703124,219.90050073242188,238.41954345703124C222.1235007324219,238.41254345703123,224.33850073242186,238.14454345703126,226.50050073242187,237.61954345703126C230.10050073242186,236.81954345703124,234.30050073242188,235.31954345703124,237.00050073242187,231.81954345703124C240.60050073242186,227.11954345703126,239.60050073242186,220.62004345703124,237.50050073242187,215.02004345703125C234.7005007324219,207.62004345703124,230.00050073242187,200.52004345703125,223.50050073242187,198.32004345703126C220.45950073242187,197.20244345703125,217.11550073242188,197.23804345703127,214.10050073242186,198.42004345703126L217.30050073242188,203.32004345703126C218.60050073242186,193.42004345703126,215.30050073242188,183.52004345703125,208.7005007324219,178.02004345703125C204.00050073242187,173.72004345703124,198.20050073242186,171.62004345703124,192.50050073242187,170.62004345703124C191.21450073242187,170.35514345703126,189.9105007324219,170.18804345703126,188.6005007324219,170.12004345703124L191.50050073242187,175.12004345703124C191.61050073242188,170.09304345703126,191.0045007324219,165.07594345703126,189.70050073242186,160.22004345703124C187.1005007324219,149.52004345703125,181.6005007324219,140.42004345703126,174.10000073242188,134.52003345703125C169.28130073242187,130.89233345703124,163.65310073242188,128.49006345703125,157.70000073242187,127.52003445703124C150.81600073242186,126.13545245703125,143.70960073242188,126.30628245703124,136.90000073242186,128.02003345703125C127.53200073242188,130.39039345703125,119.84820073242187,137.07194345703124,116.20000073242187,146.02004345703125C114.84640073242187,149.28344345703124,113.93830073242188,152.71424345703124,113.50000073242188,156.22004345703124C113.29680073242187,157.44284345703124,113.19640073242188,158.68044345703126,113.20000073242187,159.92004345703126C113.09980073242187,160.58294345703126,113.09980073242187,161.25714345703125,113.20000073242187,161.92004345703126L113.20000073242187,162.22004345703124L114.20000073242187,161.42004345703126C109.44690073242188,159.81694345703124,104.28330073242188,159.92304345703124,99.60000073242188,161.72004345703124C88.60000073242188,165.82004345703126,80.30002073242187,179.02004345703125,77.60001373242187,192.82004345703126C74.90002073242188,207.02004345703125,78.90002073242188,222.12004345703124,87.90000073242187,231.31954345703124C90.41460073242187,234.14054345703124,93.72810073242188,236.12854345703124,97.40000073242187,237.01954345703126C98.92100073242187,237.28554345703125,100.45750073242188,237.45254345703125,102.00000073242188,237.51954345703126C115.30000073242188,238.61954345703126,128.60000073242188,238.61954345703126,141.90000073242186,238.71954345703125C158.40000073242186,238.81954345703124,174.90000073242186,238.81954345703124,191.30050073242188,238.81954345703124C197.50050073242187,238.81954345703124,203.70050073242186,238.81954345703124,209.90050073242188,238.71954345703125C213.00050073242187,238.71954345703125,216.2005007324219,238.81954345703124,219.30050073242188,238.71954345703125L219.7005007324219,238.71954345703125C221.80050073242188,237.71954345703125,219.49950073242186,231.81954345703124,217.80050073242188,231.91954345703124Z"></path></g><g><path style="mix-blend-mode:passthrough" fill-opacity="1" fill="#FFFFFF" d="M129.9999984741211,174.72004011230467Q121.5999984741211,154.3200101123047,98.0999984741211,165.8200101123047"></path></g><g><path style="mix-blend-mode:passthrough" fill-opacity="1" fill="#3541DF" d="M132.5000275024414,173.82000122070312C128.9306275024414,165.31399122070312,120.62452750244141,159.76347352070312,111.4000275024414,159.72000122070312C106.42042750244141,159.89501922070312,101.53954750244141,161.1579112207031,97.09999750244141,163.4200012207031C95.7678525024414,164.02380122070312,95.08501450244141,165.51752122070312,95.49999950244141,166.9200012207031C96.0299305024414,168.26807122070312,97.54707750244141,168.93739122070312,98.89999750244141,168.4200012207031C102.42968750244141,166.54048122070313,106.3121275024414,165.41662122070312,110.30002750244141,165.11999122070313C112.9411275024414,164.97284122070312,115.57962750244141,165.45256122070313,118.00002750244141,166.51999122070313C120.02222750244141,167.43715122070313,121.85402750244141,168.72620122070313,123.4000275024414,170.32000122070312L123.7000275024414,170.72000122070312L124.00002750244141,171.12000122070313C124.3033275024414,171.54400122070314,124.6376275024414,171.94510122070312,125.00002750244141,172.32000122070312C125.50002750244141,173.02000122070314,126.00002750244141,173.72000122070312,126.4000275024414,174.32000122070312C126.5451275024414,174.63140122070314,126.71222750244141,174.93220122070312,126.9000275024414,175.22000122070312C127.30002750244141,175.9200012207031,126.7000275024414,174.82000122070312,127.00002750244141,175.52000122070314C127.1000275024414,175.82000122070312,127.2000275024414,175.9200012207031,127.30002750244141,176.22000122070312C128.6000275024414,178.82000122070312,133.9000275024414,177.00000122070313,132.5000275024414,173.82000122070312Z"></path></g><g><path style="mix-blend-mode:passthrough" fill-opacity="1" fill="#FFFFFF" d="M208.1999716796875,226.62030187988282Q187.6999716796875,201.12030187988282,158.59997167968748,209.12030187988282C152.3999716796875,210.62030187988282,146.7000116796875,214.7203018798828,142.4000116796875,220.62030187988282C130.1000016796875,237.9203018798828,144.4000116796875,261.12030187988285,166.6999716796875,261.12030187988285L419.4999716796875,260.7203018798828C437.7999716796875,260.7203018798828,445.8999716796875,238.8203018798828,431.1999716796875,228.62030187988282Q413.6899716796875,216.5303018798828,391.09997167968754,226.7203018798828Q430.4999716796875,173.72000187988283,383.8999716796875,119.32000187988281C337.2999716796875,64.92000187988282,269.1999716796875,117.1200018798828,276.3999716796875,173.72000187988283Q201.8999716796875,131.72000187988283,208.1999716796875,226.62030187988282Z"></path></g><g><path style="mix-blend-mode:passthrough" fill-opacity="1" fill="#3541DF" d="M209.59998266601562,224.91998321533202C205.13518266601562,219.57398321533202,199.7504826660156,215.06998321533203,193.69998266601561,211.619983215332C181.69998266601561,204.619983215332,167.69998266601561,202.41998321533202,154.79998266601564,207.01998321533205C143.70001266601562,211.119983215332,132.70001266601562,223.91998321533202,136.20001266601562,239.81998321533203C139.50001266601564,254.61998321533204,152.59998266601562,262.71998321533204,163.99998266601563,263.81998321533206C169.79998266601564,264.31998321533206,175.69998266601561,263.919983215332,181.49998266601563,263.919983215332L218.79998266601564,263.81998321533206L269.9004826660156,263.71998321533204L325.5004826660156,263.619983215332L375.3004826660156,263.519983215332L410.0004826660156,263.519983215332C417.40048266601565,263.519983215332,425.60048266601564,264.619983215332,432.40048266601565,260.019983215332C437.1164826660156,256.806983215332,440.27148266601563,251.76598321533203,441.10048266601564,246.11998321533204C441.86248266601564,240.08098321533203,440.00648266601564,234.00298321533202,436.0004826660156,229.41998321533202C430.60048266601564,223.41998321533202,423.10048266601564,220.71998321533204,416.2004826660156,219.81998321533203C410.1114826660156,219.11198321533203,403.9454826660156,219.51198321533204,398.0004826660156,220.99998321533204C395.27348266601564,221.66998321533202,392.5994826660156,222.53898321533202,390.0004826660156,223.59998321533203L393.2004826660156,228.89998321533204C399.1994826660156,220.37498321533204,403.57348266601565,210.81398321533203,406.10048266601564,200.69998321533203C408.75148266601565,190.96878321533202,409.7654826660156,180.86408321533202,409.10048266601564,170.79998321533202C408.04048266601563,158.33818321533204,404.35948266601565,146.24078321533204,398.3004826660156,135.29998321533202C385.9004826660156,112.79998321533203,366.60048266601564,95.80002321533203,344.60048266601564,93.50001521533203C326.8004826660156,91.70001321533204,309.10048266601564,98.80002321533203,295.20048266601566,112.89998321533203C281.48948266601565,127.05068321533203,273.8464826660156,145.99638321533203,273.9004826660156,165.69998321533203C273.91748266601564,168.14128321533204,274.0844826660156,170.57918321533202,274.4004826660156,172.99998321533204L277.10048266601564,170.69998321533203C274.7094826660156,169.31118321533205,272.1994826660156,168.13988321533202,269.60048266601564,167.19998321533203C263.7844826660156,164.662783215332,257.6684826660156,162.88158321533203,251.40048266601562,161.89998321533204C244.22348266601563,160.540283215332,236.81748266601562,161.05698321533202,229.90008266601563,163.39998321533204C222.60008266601562,165.99998321533204,216.40008266601563,171.89998321533204,212.3000826660156,180.09998321533203C206.60008266601562,191.59998321533203,205.69998266601561,205.99998321533204,205.99998266601563,219.19998321533203C205.99998266601563,221.49998321533204,206.19998266601561,223.69998321533203,206.3000826660156,225.99998321533204C206.49998266601563,229.39998321533204,211.19998266601561,231.09998321533203,210.99998266601563,226.89998321533204C210.10008266601562,213.49998321533204,210.49998266601563,198.99998321533204,215.3000826660156,186.89998321533204C216.8204826660156,182.88088321533203,219.13288266601563,179.20828321533202,222.10008266601562,176.09998321533203C223.31228266601562,174.80178321533202,224.65238266601563,173.62918321533203,226.10008266601562,172.59998321533203C227.52828266601563,171.53188321533202,229.07118266601563,170.62628321533202,230.70008266601565,169.89998321533204C232.17778266601562,169.21858321533205,233.71838266601563,168.68268321533202,235.3000826660156,168.29998321533202C236.9814826660156,167.903283215332,238.68448266601564,167.602783215332,240.40048266601562,167.39998321533204C242.09348266601563,167.21698321533205,243.80048266601563,167.18348321533205,245.5004826660156,167.29998321533202L247.70048266601563,167.29998321533202C248.57548266601563,167.30098321533202,249.44748266601562,167.401683215332,250.30048266601563,167.59998321533203C253.53548266601564,168.040283215332,256.7414826660156,168.674783215332,259.9004826660156,169.49998321533204C261.3944826660156,169.87538321533202,262.8634826660156,170.34298321533203,264.3004826660156,170.89998321533204L265.3004826660156,171.19998321533203L265.8004826660156,171.29998321533202C265.4004826660156,171.19998321533203,265.60048266601564,171.19998321533203,265.9004826660156,171.29998321533202L267.8004826660156,171.99998321533204C270.8004826660156,173.19998321533203,273.70048266601566,174.59998321533203,276.60048266601564,176.09998321533203L276.70048266601566,176.09998321533203C277.5494826660156,176.80268321533202,278.8394826660156,176.44158321533203,279.20048266601566,175.39998321533204C279.41548266601563,174.965783215332,279.51848266601564,174.48438321533203,279.5004826660156,173.99998321533204C277.10048266601564,154.79998321533202,283.9004826660156,136.09998321533203,294.70048266601566,122.79998321533203C306.70048266601566,108.19998321533203,322.60048266601564,99.80002321533203,339.20048266601566,99.20002321533204C348.20548266601566,98.92631321533203,357.1074826660156,101.17786321533202,364.9004826660156,105.69998321533203C374.70048266601566,111.09998321533203,383.0004826660156,119.79998321533203,390.0004826660156,129.79998321533202C397.0504826660156,139.72888321533202,401.79948266601565,151.10488321533202,403.90048266601565,163.09998321533203C405.4334826660156,172.833083215332,405.1614826660156,182.76518321533203,403.10048266601564,192.39998321533204C401.4984826660156,199.75798321533205,399.0484826660156,206.90598321533201,395.8004826660156,213.69998321533203C395.2004826660156,215.09998321533203,394.5004826660156,216.29998321533202,393.90048266601565,217.49998321533204C393.63848266601565,218.05398321533204,393.3374826660156,218.58898321533204,393.0004826660156,219.09998321533203L392.60048266601564,219.79998321533202C392.90048266601565,219.29998321533202,392.5004826660156,219.89998321533204,392.40048266601565,220.19998321533203C391.60048266601564,221.39998321533204,390.9004826660156,222.59998321533203,390.10048266601564,223.69998321533203C390.0004826660156,223.79998321533202,389.9004826660156,223.99998321533204,389.8004826660156,224.09998321533203C388.0004826660156,226.49998321533204,390.9004826660156,230.29998321533202,393.0004826660156,229.39998321533204C400.95848266601564,225.95398321533204,409.7144826660156,224.77798321533203,418.3004826660156,225.99998321533204C424.10048266601564,226.89998321533204,431.10048266601564,229.29998321533202,434.90048266601565,234.89998321533204C435.45148266601564,235.70298321533204,435.88848266601565,236.57798321533204,436.2004826660156,237.49998321533204C436.6014826660156,238.62298321533203,436.80448266601564,239.80698321533202,436.8004826660156,240.99998321533204C436.8484826660156,243.24598321533202,436.36948266601564,245.47298321533202,435.40048266601565,247.49998321533204C430.7004826660156,258.09998321533203,420.40048266601565,257.39998321533204,412.10048266601564,257.39998321533204L381.9004826660156,257.39998321533204L335.8004826660156,257.499983215332L282.3004826660156,257.59998321533203L230.49998266601563,257.69998321533205L189.39998266601563,257.799983215332L167.49998266601563,257.799983215332C162.16478266601564,257.919983215332,156.89078266601564,256.644983215332,152.19998266601561,254.09998321533203C147.79998266601564,251.49998321533204,143.69999266601562,247.49998321533204,141.80000266601562,242.29998321533202C139.85777266601562,237.17698321533203,140.0377226660156,231.48998321533202,142.30000266601562,226.49998321533204C145.23111266601563,220.23098321533203,150.45748266601564,215.32698321533204,156.89998266601563,212.79998321533202C163.46048266601562,210.28098321533201,170.58938266601564,209.62298321533203,177.49998266601563,210.89998321533204C187.38098266601563,212.87798321533205,196.47948266601563,217.67098321533203,203.69998266601561,224.69998321533203C204.19998266601561,225.19998321533203,204.89998266601563,225.79998321533202,205.39998266601563,226.29998321533202L205.89998266601563,226.79998321533202C206.49998266601563,227.49998321533204,205.59998266601562,226.39998321533204,205.99998266601563,226.89998321533204C206.30818266601563,227.28898321533202,206.64228266601563,227.65598321533204,206.99998266601563,227.99998321533204C207.89998266601563,229.09998321533203,209.39998266601563,229.89998321533204,210.29998266601564,228.69998321533203C211.39998266601563,227.31998321533203,210.39998266601563,225.81998321533203,209.59998266601562,224.91998321533202Z"></path></g><g><path style="mix-blend-mode:passthrough" fill-opacity="1" fill="#FFFFFF" d="M743.6999938964843,813.920018005371L498.79999389648435,943.2200180053711L254.39999389648438,813.920018005371L254.39999389648438,618.6200180053711L743.6999938964843,618.6200180053711L743.6999938964843,813.920018005371Z"></path></g><g><path style="mix-blend-mode:passthrough" fill-opacity="1" fill="#111111" d="M498.79998779296875,945.2200180053711C498.4909877929688,945.2010180053711,498.1879877929688,945.1340180053711,497.8999877929688,945.0200180053711L253.39999779296875,815.6200180053711C252.73063679296874,815.2680180053711,252.30833435296876,814.5760180053711,252.29998779296875,813.8200180053711L252.29998779296875,618.6200180053711C252.29998779296875,617.5154650053711,253.19541979296875,616.6200180053711,254.29998779296875,616.6200180053711L743.5999877929687,616.6200180053711C744.7049877929687,616.6200180053711,745.5999877929687,617.5154650053711,745.5999877929687,618.6200180053711L745.5999877929687,813.920018005371C745.5809877929687,814.6730180053711,745.1619877929688,815.3590180053711,744.4999877929688,815.7200180053711L499.79998779296875,945.0000180053711C499.48198779296877,945.1300180053711,499.1429877929687,945.2050180053711,498.79998779296875,945.2200180053711ZM256.39999779296875,812.7200180053711L498.79998779296875,941.0000180053711L741.6999877929687,812.7000180053711L741.6999877929687,620.6200180053711L256.39999779296875,620.6200180053711L256.39999779296875,812.7200180053711Z"></path></g><g><path style="mix-blend-mode:passthrough" fill-opacity="1" fill="#FFFFFF" d="M743.6999877929687,576.7200057983398L498.79998779296875,447.42000579833984L608.8999877929688,394.42000579833984L853.6999877929687,523.7200057983398L743.6999877929687,576.7200057983398Z"></path></g><g><path style="mix-blend-mode:passthrough" fill-opacity="1" fill="#111111" d="M743.6999267578125,578.7196701049804C743.3909267578125,578.7016701049805,743.0879267578125,578.6336701049804,742.7999267578125,578.5196701049805L497.8999967578125,449.11997010498044C497.2209777578125,448.7778701049805,496.7947082478125,448.08027010498046,496.7999877930125,447.3199701049805C496.8188781578125,446.5665701049805,497.2381897578125,445.8804701049805,497.8999967578125,445.5199701049805L607.8999267578125,392.5200121049805C608.4619267578125,392.21956630498045,609.1379267578125,392.21956630498045,609.6999267578125,392.5200121049805L854.4999267578125,521.8196701049804C855.1789267578125,522.1616701049804,855.6049267578126,522.8596701049805,855.5999267578125,523.6196701049805C855.5809267578124,524.3736701049804,855.1619267578126,525.0596701049805,854.4999267578125,525.4196701049805L744.4999267578125,578.4196701049805C744.2819267578125,578.6196701049805,743.9959267578125,578.7276701049805,743.6999267578125,578.7196701049804ZM503.2000167578125,447.5199701049805L743.6999267578125,574.5196701049805L849.2999267578125,523.6196701049805L608.7999267578125,396.61999010498045L503.2000167578125,447.5199701049805Z"></path></g><g><path style="mix-blend-mode:passthrough" fill-opacity="1" fill="#FFFFFF" d="M254.4000030517578,576.7199752807617L499.2000030517578,447.4199752807617L389.2000030517578,394.4199752807617L144.3000030517578,523.7199752807617L254.4000030517578,576.7199752807617Z"></path></g><g><path style="mix-blend-mode:passthrough" fill-opacity="1" fill="#111111" d="M254.400193359375,578.7196762084961C254.09119335937498,578.7016762084961,253.787193359375,578.6336762084961,253.500193359375,578.5196762084961L143.500003359375,525.5196762084961C142.801452359375,525.1996762084962,142.366577159375,524.487676208496,142.399993899375,523.7196762084961C142.418899559375,522.9666762084961,142.838180359375,522.2806762084961,143.500003359375,521.9196762084961L388.300193359375,392.61998720849607C388.862193359375,392.3195724084961,389.537193359375,392.3195724084961,390.100193359375,392.61998720849607L500.100193359375,445.6199762084961C500.798193359375,445.9405762084961,501.233193359375,446.6521762084961,501.200193359375,447.4199762084961C501.181193359375,448.1733762084961,500.762193359375,448.85947620849606,500.100193359375,449.21997620849606L255.300193359375,578.5196762084961C255.012193359375,578.6336762084961,254.709193359375,578.7016762084961,254.400193359375,578.7196762084961ZM148.69999335937501,523.6196762084961L254.300193359375,574.5196762084961L494.800193359375,447.5199762084961L389.200193359375,396.6200162084961L148.69999335937501,523.6196762084961Z"></path></g><g><path style="mix-blend-mode:passthrough" fill-opacity="1" fill="#FFFFFF" d="M254.4,576.7199630737305L499.2,705.9999630737304L373.3,774.8999630737305L128.5,645.6199630737304L254.4,576.7199630737305Z"></path></g><g><path style="mix-blend-mode:passthrough" fill-opacity="1" fill="#111111" d="M373.3,776.920260925293C372.991,776.901260925293,372.688,776.8342609252929,372.4,776.7202609252929L127.6,647.419960925293C126.952385,647.094460925293,126.5315399,646.444060925293,126.5,645.719960925293C126.5197754,644.9927609252929,126.893021,644.320960925293,127.5,643.919960925293L253.4,574.999991925293C253.998,574.700309725293,254.702,574.700309725293,255.3,574.999991925293L500.1,704.300260925293C500.748,704.625260925293,501.168,705.276260925293,501.2,706.000260925293C501.18,706.727260925293,500.807,707.399260925293,500.2,707.800260925293L374.3,776.7002609252929C373.98199999999997,776.830260925293,373.64300000000003,776.904260925293,373.3,776.920260925293ZM132.7,645.619960925293L373.3,772.7202609252929L495,706.120260925293L254.4,578.999990925293L132.7,645.619960925293Z"></path></g><g><path style="mix-blend-mode:passthrough" fill-opacity="1" fill="#FFFFFF" d="M743.6999877929687,576.7199630737305L498.79998779296875,705.9999630737304L624.6999877929687,774.8999630737305L869.5999877929687,645.6000630737304L743.6999877929687,576.7199630737305Z"></path></g><g><path style="mix-blend-mode:passthrough" fill-opacity="1" fill="#111111" d="M624.6999877929687,776.920260925293C624.3589877929687,776.9022609252929,624.0219877929687,776.8342609252929,623.6999877929687,776.7202609252929L497.80001779296873,707.8202609252929C497.17523179296876,707.4352609252929,496.79614258296874,706.753260925293,496.80001831056876,706.020260925293C496.7965087929687,705.285260925293,497.22824079296873,704.6182609252929,497.90002779296873,704.3202609252929L742.6999877929687,574.999991925293C743.2979877929688,574.700309725293,744.0019877929687,574.700309725293,744.5999877929687,574.999991925293L870.4999877929688,643.900060925293C871.1249877929688,644.284260925293,871.5039877929687,644.9665609252929,871.4999877929688,645.699960925293C871.5039877929687,646.434760925293,871.0719877929687,647.102060925293,870.3999877929688,647.400060925293L625.6999877929687,776.7202609252929C625.3809877929688,776.843260925293,625.0419877929687,776.9112609252929,624.6999877929687,776.920260925293ZM502.99999779296877,706.120260925293L624.6999877929687,772.7202609252929L865.2999877929688,645.619960925293L743.6999877929687,578.999990925293L502.99999779296877,706.120260925293Z"></path></g><g><path style="mix-blend-mode:passthrough" fill-opacity="1" fill="#111111" d="M499.1999938964844,447.42000579833984L254.39999389648438,576.7200057983398L498.79999389648435,706.0000057983398L743.6999938964843,576.7000057983398L499.1999938964844,447.42000579833984Z"></path></g><g><rect style="mix-blend-mode:passthrough" fill-opacity="1" fill="#111111" rx="0" height="237.1999969482422" width="4" y="706.0200424194336" x="496.8999938964844"></rect></g><g><path style="mix-blend-mode:passthrough" fill-opacity="1" fill="#111111" d="M361.69973095703125,564.9999904174805C361.11473095703127,564.9849904174805,360.58273095703123,564.6529904174805,360.31273095703125,564.1329904174804C360.04273095703127,563.6139904174804,360.0757309570313,562.9879904174804,360.39973095703124,562.4999904174805C360.69973095703125,562.0999904174805,389.39973095703124,520.5999904174805,357.39973095703124,482.79999041748044C345.92073095703125,469.18809041748045,329.00573095703123,461.35339041748045,311.19973095703125,461.39999041748047L310.7997309570312,461.39999041748047C313.7997309570312,471.9999904174805,313.2997309570312,481.39999041748047,308.99973095703126,488.59999041748046C304.89973095703124,495.39999041748047,297.69973095703125,499.39999041748047,290.49973095703126,498.79999041748044C284.10003095703127,498.29999041748044,279.10003095703127,494.29999041748044,276.70003095703123,488.09999041748046C273.20003095703123,478.89999041748047,276.9000309570313,469.9999904174805,286.5997309570313,464.29999041748044C291.7997309570312,461.1999904174805,298.7997309570312,459.1999904174805,306.5997309570313,458.59999041748046C304.32973095703124,452.55109041748045,301.37673095703127,446.7805904174805,297.7997309570312,441.39999041748047C286.19973095703125,423.6999904174805,265.20003095703123,411.4999904174805,240.00003095703124,407.89999041748047C218.70003095703126,404.79998041748047,198.20003095703126,408.4999904174805,187.90005095703125,417.1999904174805C187.23741095703124,417.7533904174805,186.25151095703126,417.66429041748046,185.69882195703124,417.00109041748044C185.14613295703126,416.33779041748045,185.23625195703124,415.35199041748047,185.90005495703124,414.79999041748044C196.90003095703125,405.4999904174805,218.30003095703125,401.59997041748045,240.50003095703124,404.79998041748047C266.60003095703127,408.59997041748045,288.39973095703124,421.29999041748044,300.49973095703126,439.6999904174805C304.3717309570312,445.54929041748045,307.55973095703126,451.82369041748046,309.99973095703126,458.39999041748047C329.2107309570313,457.9589904174805,347.58973095703124,466.22969041748047,359.99973095703126,480.89999041748047C393.5997309570313,520.5999904174805,363.49973095703126,563.9999904174805,363.19973095703125,564.4999904174805C362.7277309570312,564.7409904174805,362.2227309570312,564.9099904174805,361.69973095703125,564.9999904174805ZM307.49973095703126,461.4999904174805C300.70973095703124,461.8206904174805,294.07873095703127,463.66629041748047,288.0997309570313,466.89999041748047C279.70003095703123,471.89999041748047,276.60003095703127,479.09999041748046,279.60003095703127,486.89999041748047C281.2469309570313,491.74489041748046,285.60173095703124,495.15819041748045,290.69973095703125,495.59999041748046C296.69973095703125,496.09999041748046,302.7997309570312,492.6999904174805,306.19973095703125,486.89999041748047C310.19973095703125,480.3199904174805,310.49973095703126,471.51999041748047,307.49973095703126,461.51999041748047L307.49973095703126,461.4999904174805Z"></path></g><g><path style="mix-blend-mode:passthrough" fill-opacity="1" fill="#111111" d="M160.29998474121095,442.62003563232423C157.92808474121094,443.34083563232423,155.37753474121092,443.1991356323242,153.10000474121094,442.2200356323242C150.46229474121094,441.11483563232423,148.35008474121094,439.0384356323242,147.20001174121094,436.42003563232424C146.09997574121093,433.7627356323242,146.09997574121093,430.7773356323242,147.20001174121094,428.1200156323242C148.30516474121094,425.4822956323242,150.38159474121093,423.37007563232424,153.00001474121095,422.2200236323242C158.49418474121094,419.9329756323242,164.80228474121094,422.53035563232424,167.09318474121093,428.0229156323242C169.38398474121095,433.5154356323242,166.79098474121093,439.8253356323242,161.29998474121095,442.12003563232423C161.01198474121094,442.36503563232424,160.66888474121095,442.5365356323242,160.29998474121095,442.62003563232423ZM155.10000474121094,424.9199756323242C154.80000474121093,425.0199856323242,154.60000474121094,425.11998563232424,154.30000474121093,425.2199656323242C152.45843474121094,426.0107656323242,150.99078474121094,427.47841563232424,150.19999474121093,429.3199656323242C149.40020474121093,431.17055563232424,149.40020474121093,433.2693356323242,150.19999474121093,435.1199356323242C150.99076474121094,436.9615356323242,152.45843474121094,438.42913563232423,154.30000474121093,439.2199356323242C156.15061474121094,440.0197356323242,158.24938474121095,440.0197356323242,160.09998474121093,439.2199356323242C163.89108474121093,437.7294356323242,165.82628474121094,433.5091356323242,164.48178474121093,429.66377563232425C163.13728474121095,425.8184456323242,158.99388474121093,423.7234156323242,155.10000474121094,424.9199756323242Z"></path></g><g><path style="mix-blend-mode:passthrough" fill-opacity="1" fill="#111111" d="M160.2999892578125,417.7199737182617C157.9280892578125,418.4407737182617,155.3775292578125,418.2990737182617,153.1000092578125,417.31997371826174C146.6140594578125,414.5967737182617,144.4644892578125,406.4702037182617,148.7557392578125,400.89629371826175C153.0469792578125,395.32238371826173,161.4529892578125,395.32238371826173,165.7442892578125,400.89629371826175C170.03548925781251,406.47023371826174,167.8859892578125,414.5967737182617,161.3999892578125,417.31997371826174C161.0507892578125,417.49707371826173,160.6813892578125,417.6313737182617,160.2999892578125,417.7199737182617ZM154.9999992578125,400.1199837182617C154.6999992578125,400.2199937182617,154.4999992578125,400.3200037182617,154.1999992578125,400.4199737182617C152.3584292578125,401.2107737182617,150.8907792578125,402.67842371826174,150.0999892578125,404.5199837182617C149.3001992578125,406.3705937182617,149.3001992578125,408.4693737182617,150.0999892578125,410.31997371826174C150.8907792578125,412.16147371826173,152.3584292578125,413.6291737182617,154.1999992578125,414.4199737182617C156.0506092578125,415.2197737182617,158.1493892578125,415.2197737182617,159.9999892578125,414.4199737182617C161.8415892578125,413.6291737182617,163.3091892578125,412.1615737182617,164.0999892578125,410.31997371826174C164.8997892578125,408.4693737182617,164.8997892578125,406.3705937182617,164.0999892578125,404.5199837182617C163.3091892578125,402.6783937182617,161.8415892578125,401.2107437182617,159.9999892578125,400.4199737182617C158.4242892578125,399.7194737182617,156.6481892578125,399.6129037182617,154.9999992578125,400.1199837182617Z"></path></g><g><ellipse style="mix-blend-mode:passthrough" fill-opacity="1" fill="#FFFFFF" ry="9.399999618530273" rx="14.100000381469727" cy="419.51998710632324" cx="157.20000648498535"></ellipse></g><g><path style="mix-blend-mode:passthrough" fill-opacity="1" fill="#111111" d="M163.50000610351563,429.6199775756836C161.48950610351562,430.2263775756836,159.39990610351563,430.52977757568357,157.3000061035156,430.5199775756836C148.49999610351563,430.5199775756836,141.60000610351562,425.7199775756836,141.60000610351562,419.5199775756836C141.60000610351562,413.3199675756836,148.49999610351563,408.5199813856836,157.3000061035156,408.5199813856836C161.14320610351564,408.4747848756836,164.92120610351563,409.51457957568357,168.20000610351562,411.5199775756836C171.3000061035156,413.6199875756836,173.00000610351563,416.4199775756836,173.00000610351563,419.5199775756836C173.00000610351563,422.6199775756836,171.3000061035156,425.4199775756836,168.20000610351562,427.5199775756836C166.73110610351563,428.4209775756836,165.15120610351562,429.1268775756836,163.50000610351563,429.6199775756836ZM152.00000610351563,412.4200075756836C147.8000061035156,413.7199975756836,144.8000061035156,416.4200075756836,144.8000061035156,419.5199775756836C144.8000061035156,423.7199775756836,150.49999610351563,427.3199775756836,157.3000061035156,427.3199775756836C160.51210610351563,427.39097757568356,163.6750061035156,426.52207757568357,166.40000610351564,424.8199775756836C168.60000610351562,423.3199775756836,169.8000061035156,421.4199775756836,169.8000061035156,419.5199775756836C169.64040610351563,417.29051757568357,168.3599061035156,415.2945175756836,166.40000610351564,414.2200275756836C163.6750061035156,412.5179975756836,160.51210610351563,411.6490675756836,157.3000061035156,411.7200275756836C155.50820610351562,411.6865475756836,153.72160610351563,411.9225075756836,152.00000610351563,412.4200075756836Z"></path></g><g><path style="mix-blend-mode:passthrough" fill-opacity="1" fill="#111111" d="M160.69999474121093,428.61998748779297L160.39999474121095,410.319999487793L155.79998774121094,410.11998748779297L155.49998474121094,428.919987487793L160.69999474121093,428.61998748779297Z"></path></g><g><ellipse style="mix-blend-mode:passthrough" fill-opacity="1" fill="#111111" ry="1.5" rx="1.5" cy="422.01998138427734" cx="138.5"></ellipse></g><g><ellipse style="mix-blend-mode:passthrough" fill-opacity="1" fill="#111111" ry="1.5" rx="1.5" cy="414.2199935913086" cx="139.6999969482422"></ellipse></g><g><path style="mix-blend-mode:passthrough" fill-opacity="1" fill="#111111" d="M511.9999994042969,401.5195693359375C511.3055694042969,401.54456933593747,510.68487940429685,401.08956933593754,510.4999994042969,400.41956933593747C510.3999894042969,400.1195693359375,501.8999894042969,371.91956933593747,506.3999894042969,340.1195693359375C510.4999994042969,310.6195693359375,526.7999394042969,271.9199693359375,581.0000394042969,254.91996933593748C588.6264394042969,252.4368693359375,596.4566394042969,250.62986933593749,604.4000394042969,249.5199693359375C606.9996394042969,233.5199693359375,616.6996394042969,216.2199693359375,638.3996394042969,204.31996933593751C690.0996394042969,175.9199693359375,724.9996394042969,201.4199693359375,725.2996394042968,201.6199693359375C725.9906394042969,202.1446693359375,726.1246394042969,203.1296693359375,725.5996394042969,203.8200693359375C725.0756394042969,204.5103693359375,724.0906394042969,204.6446693359375,723.3996394042969,204.1199693359375C723.0996394042969,203.9199693359375,689.6996394042969,179.6199693359375,639.8996394042969,207.0199693359375C619.5996394042969,218.2199693359375,610.2996394042968,234.2199693359375,607.5996394042969,249.1199693359375C631.4996394042969,246.7199693359375,642.9996394042969,254.7199693359375,648.0996394042969,260.8199693359375C654.5906394042969,268.2448693359375,656.0456394042969,278.8183693359375,651.7996394042968,287.7199693359375C648.3906394042968,294.9025693359375,640.9316394042969,299.2665693359375,632.9996394042969,298.71956933593754C619.5996394042969,297.91956933593747,608.5996394042969,286.7199693359375,604.8000394042969,270.1199693359375C603.5446394042968,264.5114693359375,603.2069394042969,258.7365693359375,603.8000394042969,253.0199693359375C596.3303394042969,254.0661693359375,588.9682394042969,255.77286933593751,581.8000394042969,258.1199693359375C539.5000394042969,271.3199693359375,515.2000394042968,299.1195693359375,509.4000594042969,340.71956933593754C505.1000671042969,371.8195693359375,513.3000494042968,399.41956933593747,513.4000294042969,399.71956933593754C513.6695594042968,400.57856933593746,513.1691894042968,401.4875693359375,512.3000494042968,401.71956933593754C512.2999894042969,401.41956933593747,512.0999794042968,401.5195693359375,511.9999994042969,401.5195693359375ZM607.1996394042969,252.4199693359375C606.5416394042969,258.0258693359375,606.8116394042969,263.7019693359375,607.9996394042969,269.2199693359375C611.3996394042969,284.4199693359375,621.2996394042968,294.71956933593754,633.2996394042968,295.41956933593747C639.9626394042969,295.9165693359375,646.2436394042969,292.2595693359375,649.0996394042969,286.2199693359375C652.7966394042969,278.4799693359375,651.5386394042969,269.2833693359375,645.8996394042969,262.8199693359375C638.2996394042968,254.1199693359375,624.7996394042968,250.5199693359375,607.1996394042969,252.4199693359375Z"></path></g><g><path style="mix-blend-mode:passthrough" fill-opacity="1" fill="#111111" d="M762.1999770996093,217.6199454345703C756.8930970996093,217.61914543457033,752.3085670996094,213.90984543457031,751.1999820996094,208.72004543457032C749.8719770996094,202.58726543457033,753.7677870996093,196.5393654345703,759.9007870996094,195.2126464345703C766.0338770996094,193.8859254345703,772.0808770996093,197.7829454345703,773.4063770996094,203.91622543457032C774.7317770996094,210.04954543457032,770.8334770996094,216.09584543457032,764.6999770996093,217.4200454345703C763.8717770996094,217.54034543457033,763.0367770996094,217.60714543457033,762.1999770996093,217.6199454345703ZM762.2999770996094,198.1199954345703C761.7281770996094,198.1313354345703,761.1587770996093,198.1983154345703,760.5999470996094,198.3199954345703C756.2022970996094,199.27644543457032,753.4214170996094,203.62716543457032,754.3999370996094,208.0199454345703C754.8456070996094,210.1435454345703,756.1482270996094,211.98894543457033,757.9999070996093,213.1199454345703C759.7912270996094,214.3203454345703,762.0020770996093,214.71904543457032,764.0998770996093,214.22004543457032C768.4975770996094,213.26354543457032,771.2783770996094,208.9128454345703,770.2998770996094,204.52000543457032C769.4249770996094,200.7990754345703,766.1221770996094,198.15673543457032,762.2999770996094,198.1199954345703Z"></path></g><g><path style="mix-blend-mode:passthrough" fill-opacity="1" fill="#111111" d="M757.4999997558593,243.51999334716797C752.1932097558594,243.51909334716797,747.6086697558594,239.80979334716795,746.5000307558594,234.61999334716796C745.8709407558594,231.69949334716796,746.4093327558594,228.64879334716798,748.0000297558594,226.12000334716797C749.6183197558594,223.60497334716797,752.1744697558594,221.84085834716797,755.1000097558593,221.22000934716797C758.0204997558594,220.59096534716798,761.0711997558594,221.12932634716796,763.5999997558594,222.72001334716796C766.1150997558593,224.33825334716798,767.8791997558594,226.89443334716796,768.4999997558593,229.82001334716796C769.1290997558593,232.74049334716796,768.5906997558594,235.79119334716796,766.9999997558593,238.31999334716798C765.3816997558594,240.83499334716797,762.8255997558593,242.59919334716795,759.9000997558594,243.21999334716796C759.1153997558594,243.41809334716797,758.3092997558593,243.51889334716796,757.4999997558593,243.51999334716797ZM757.4999997558593,224.01999334716797C756.8955997558594,224.03707334716796,756.2934997558593,224.10396334716796,755.7000397558594,224.21999334716796C753.5882297558594,224.69249334716798,751.7524097558594,225.98838334716797,750.6000697558594,227.82000334716798C749.3996897558594,229.61132334716797,749.0010097558594,231.82219334716797,749.5000897558593,233.91999334716797C749.9457697558594,236.04359334716796,751.2483797558593,237.88899334716797,753.1000697558594,239.01999334716797C754.8913897558593,240.22039334716797,757.1022997558593,240.61909334716796,759.1999997558594,240.11999334716796C761.3117997558594,239.64759334716797,763.1475997558593,238.35169334716798,764.2999997558594,236.51999334716797C765.5002997558594,234.72869334716796,765.8989997558593,232.51779334716798,765.3999997558594,230.42000334716798C764.9543997558594,228.29642334716797,763.6517997558594,226.45102334716796,761.7999997558594,225.32000334716798C760.5489997558594,224.42296334716798,759.0389997558593,223.95942334716796,757.4999997558593,223.99999334716796L757.4999997558593,224.01999334716797Z"></path></g><g transform="matrix(0.1815490424633026,-0.9833818674087524,0.9833818674087524,0.1815490424633026,385.50537333439934,916.6040284924654)"><ellipse style="mix-blend-mode:passthrough" fill-opacity="1" fill="#FFFFFF" ry="14.899999618530273" rx="10" cy="241.606595993042" cx="753.4098815917969"></ellipse></g><g><path style="mix-blend-mode:passthrough" fill-opacity="1" fill="#111111" d="M761.9999927246093,231.32002747802736C760.5568927246094,231.33122747802736,759.1162927246094,231.19722747802734,757.7000927246094,230.92002747802735C753.7090927246094,230.24672747802734,749.9953927246094,228.44192747802734,747.0000327246094,225.72002747802733C744.2000427246094,223.02002747802734,742.9000547246094,219.72002747802733,743.5000307246094,216.52002747802734C744.1000057246093,213.32002747802736,746.4000527246094,210.72002747802733,750.0000327246094,209.22002747802733C757.6768927246094,206.27466747802734,766.3555927246093,207.85610197802734,772.4999927246093,213.32002747802736C775.2999927246094,216.02002747802734,776.5999927246094,219.32002747802736,775.9999927246093,222.52002747802734C775.4000927246094,225.72002747802733,773.0999927246094,228.32002747802736,769.4999927246093,229.82002747802736C767.1338927246094,230.84352747802734,764.5778927246093,231.35472747802734,761.9999927246093,231.32002747802736ZM757.5999927246094,210.92001747802735C755.4407927246094,210.89293747802733,753.2981227246094,211.30104747802736,751.3000227246093,212.12001747802734C748.7000427246094,213.22002747802733,747.0000327246094,215.02000747802734,746.6000027246093,217.12001747802734C746.1999827246094,219.22002747802733,747.1000027246093,221.42002747802735,749.1999827246094,223.42002747802735C751.7287327246094,225.70062747802734,754.8470927246094,227.22512747802733,758.1999927246094,227.82002747802736C761.5464927246094,228.55682747802734,765.0388927246094,228.24252747802734,768.1999927246094,226.92002747802735C770.7999927246094,225.82002747802736,772.4999927246093,224.02002747802734,772.8999927246093,221.92002747802735C773.2999927246094,219.82002747802736,772.3999927246093,217.62001747802734,770.2999927246094,215.62001747802734C767.7712927246093,213.33942747802735,764.6528927246094,211.81487747802734,761.2999927246094,211.22002747802733C760.0767927246094,211.02083747802735,758.8393927246094,210.92050747802733,757.5999927246094,210.92001747802735Z"></path></g><g><path style="mix-blend-mode:passthrough" fill-opacity="1" fill="#111111" d="M758.0000283105469,209.31999969482422L754.8000183105469,228.5199996948242L759.5000283105469,229.5199996948242L763.5000283105469,210.12000269482422L758.0000283105469,209.31999969482422Z"></path></g><g><ellipse style="mix-blend-mode:passthrough" fill-opacity="1" fill="#111111" ry="1.5" rx="1.5" cy="228.42000579833984" cx="777.0999450683594"></ellipse></g><g><ellipse style="mix-blend-mode:passthrough" fill-opacity="1" fill="#111111" ry="1.5" rx="1.5" cy="220.52001190185547" cx="779.8000183105469"></ellipse></g></g><g><path style="mix-blend-mode:passthrough" fill-opacity="1" fill="#3541DF" d="M741.2000122070312,816.2100336914062C758.0000122070312,776.6800336914063,782.7800122070313,749.8500366914062,798.1400122070313,750.4700316914062Q813.5000122070312,751.0900266914063,798.1400122070313,783.2400336914062Q830.9000122070313,753.1300636914062,846.4700122070312,761.7300336914062Q862.0400122070313,770.3300336914062,831.1100122070312,798.0000336914062Q847.9100122070313,785.9199336914063,860.6000122070312,788.0000336914062Q873.2900122070313,790.0800336914062,847.9100122070313,816.0000336914062L741.2000122070312,816.2100336914062Z"></path></g><g><path style="mix-blend-mode:passthrough" fill-opacity="1" fill="#111111" d="M784.8300139648437,807.6099776367188L784.4200439648438,807.6099776367188C783.8861079648437,807.4690776367188,783.5957029648438,806.8929776367188,783.8000488648438,806.3799776367188C786.7094139648437,799.5160776367187,790.1185339648438,792.8748776367188,794.0000139648438,786.5100096367188C794.3231139648437,786.0506591367188,794.9234139648438,785.8797606367187,795.4400139648437,786.1000366367188C796.0500139648437,786.3100586367187,796.0500139648437,786.9200436367188,795.8500139648437,787.5400376367187C792.0318039648438,793.7623876367187,788.6889639648438,800.2641776367187,785.8499739648438,806.9900776367188C785.4400039648438,807.1999776367187,785.0000039648437,807.6099776367188,784.8300139648437,807.6099776367188Z"></path></g><g><path style="mix-blend-mode:passthrough" fill-opacity="1" fill="#111111" d="M818.8200071367188,813.7500065429688L818.6199951367188,813.7500065429688C818.0860591367187,813.6092065429688,817.7956541367188,813.0330065429688,818.0000000367188,812.5200065429688C818.0000000367188,812.3200065429687,819.4400051367187,808.0200165429687,826.8099951367187,801.0500485429687C827.2022751367188,800.6489255429688,827.8477151367188,800.6489255429688,828.2399651367188,801.0500485429687C828.6479651367188,801.4433595429688,828.6479651367188,802.0968065429688,828.2399651367188,802.4900465429688Q821.2399951367188,809.2400465429688,819.8499751367187,813.1401065429687C819.6400151367187,813.3400065429687,819.2299851367187,813.7500065429688,818.8200071367188,813.7500065429688Z"></path></g><g><path style="mix-blend-mode:passthrough" fill-opacity="1" fill="#3541DF" d="M253.910216796875,812.2100336914062C237.120216796875,772.6800336914063,212.340016796875,745.8500366914062,196.98001679687502,746.4700316914062Q181.620016796875,747.0900266914063,196.98001679687502,779.2400336914062Q164.200016796875,749.1300636914062,148.640016796875,757.7300336914062Q133.080016796875,766.3300336914062,164.000016796875,794.0000336914062Q147.220016796875,781.9199336914063,134.509996796875,784.0000336914062Q121.799986796875,786.0800336914062,147.210016796875,812.0000336914062L253.910216796875,812.2100336914062Z"></path></g><g><path style="mix-blend-mode:passthrough" fill-opacity="1" fill="#111111" d="M210.2900395263672,803.60998046875C209.8662395263672,803.60918046875,209.4791395263672,803.36918046875,209.2900395263672,802.98998046875C206.3933595263672,796.23818046875,202.9519995263672,789.73340046875,198.9999995263672,783.53998046875C198.7260895263672,783.03033046875,198.90246582636718,782.39532446875,199.39999352636718,782.09997546875C199.9133195263672,781.83850146875,200.5413995263672,782.01733396875,200.8399995263672,782.50994846875C204.77512952636718,788.85107046875,208.19927952636718,795.49538046875,211.0800395263672,802.37998046875C211.33583952636718,802.89408046875,211.0255395263672,803.50978046875,210.46003952636718,803.60988046875L210.2900395263672,803.60998046875Z"></path></g><g><path style="mix-blend-mode:passthrough" fill-opacity="1" fill="#111111" d="M176.28999288574218,809.7499645507812C175.8009828857422,809.7579645507813,175.3779628857422,809.4110645507812,175.28999288574218,808.9299645507813Q173.84999288574218,804.8399645507812,166.88999988574218,798.2799645507813C166.5269469857422,797.8939245507812,166.44680788574217,797.3208615507813,166.6900028857422,796.8499755507812C167.07514988574218,796.4863891507813,167.64656288574218,796.4024655507812,168.1199928857422,796.6399535507812L168.33000288574218,796.8499755507812Q175.69999288574218,804.0199545507812,177.12998288574218,808.3199645507813C177.2846828857422,808.8267645507813,177.0171828857422,809.3663645507812,176.5200028857422,809.5499645507813L176.28999288574218,809.7499645507812Z"></path></g></g></svg>