<?xml version="1.0" standalone="no"?><!DOCTYPE svg PUBLIC "-//W3C//DTD SVG 1.1//EN" "http://www.w3.org/Graphics/SVG/1.1/DTD/svg11.dtd"><svg class="icon" width="200px" height="200.00px" viewBox="0 0 1024 1024" version="1.1" xmlns="http://www.w3.org/2000/svg"><path d="M321.163636 500.363636L62.836364 400.290909c-6.981818-2.327273-13.963636-4.654545-20.945455-4.654545-25.6 0-41.890909 20.945455-41.890909 51.2v337.454545c0 32.581818 16.290909 72.145455 51.2 86.109091l258.327273 102.4c6.981818 2.327273 13.963636 4.654545 20.945454 4.654545 25.6 0 44.218182-20.945455 44.218182-51.2V586.472727c-2.327273-30.254545-18.618182-72.145455-53.527273-86.109091zM765.672727 395.636364c-6.981818 0-13.963636 2.327273-20.945454 4.654545l-267.636364 102.4c-34.909091 11.636364-58.181818 46.545455-58.181818 83.781818v337.454546c0 30.254545 18.618182 51.2 44.218182 51.2 6.981818 0 13.963636-2.327273 20.945454-4.654546l269.963637-102.4c32.581818-11.636364 60.509091-51.2 60.509091-86.109091V446.836364c0-30.254545-20.945455-51.2-48.872728-51.2z" fill="#D7EAF9" /><path d="M472.436364 979.781818c-20.945455 0-44.218182-13.963636-44.218182-53.527273V586.472727c0-37.236364 23.272727-74.472727 53.527273-86.109091l260.654545-102.4c6.981818-4.654545 16.290909-4.654545 23.272727-4.654545 30.254545 0 48.872727 20.945455 48.872728 51.2v342.109091c0 34.909091-25.6 74.472727-58.181819 86.109091l-260.654545 102.4c-9.309091 4.654545-18.618182 4.654545-23.272727 4.654545z m290.909091-539.927273s-2.327273 0 0 0l-262.981819 102.4c-13.963636 4.654545-25.6 25.6-25.6 44.218182v346.763637l262.981819-102.4c13.963636-4.654545 30.254545-27.927273 30.254545-44.218182V444.509091v-4.654546h-4.654545c2.327273 0 0 0 0 0zM330.472727 977.454545h-13.963636L53.527273 872.727273C23.272727 861.090909 2.327273 826.181818 2.327273 786.618182V446.836364c0-51.2 34.909091-53.527273 41.890909-53.527273s11.636364 0 20.945454 4.654545l253.672728 102.4c30.254545 9.309091 51.2 41.890909 55.854545 83.781819v342.10909c0 34.909091-23.272727 51.2-44.218182 51.2z m-4.654545-46.545454c2.327273-2.327273 2.327273-4.654545 2.327273-6.981818V584.145455c-2.327273-18.618182-11.636364-37.236364-23.272728-39.563637H302.545455L48.872727 442.181818V786.618182c0 20.945455 9.309091 37.236364 23.272728 44.218182L325.818182 930.909091zM44.218182 439.854545zM400.290909 465.454545c-23.272727 0-41.890909-2.327273-55.854545-9.30909L46.545455 344.436364c-9.309091-4.654545-27.927273-11.636364-27.927273-30.254546s18.618182-27.927273 27.927273-30.254545l297.890909-111.709091c30.254545-11.636364 81.454545-11.636364 109.381818 0l297.890909 114.036363c9.309091 4.654545 27.927273 11.636364 27.927273 30.254546s-18.618182 27.927273-27.927273 30.254545l-297.890909 109.381819c-11.636364 6.981818-32.581818 9.309091-53.527273 9.30909z m-302.545454-151.272727l265.30909 100.072727c4.654545 2.327273 16.290909 4.654545 37.236364 4.654546s32.581818-2.327273 37.236364-4.654546l265.309091-97.745454-265.309091-102.4c-18.618182-6.981818-55.854545-6.981818-76.8 0L97.745455 314.181818z" fill="#1B9DFF" /><path d="M912.290909 295.563636h-81.454545c-20.945455 0-37.236364-13.963636-37.236364-30.254545V186.181818h-30.254545c-18.618182 0-34.909091-13.963636-34.909091-32.581818 0-6.981818 4.654545-16.290909 9.309091-20.945455l107.054545-93.090909c11.636364-11.636364 34.909091-11.636364 46.545455-4.654545l2.327272 2.327273 2.327273 2.327272 107.054545 93.090909c9.309091 9.309091 11.636364 18.618182 9.309091 27.927273-2.327273 9.309091-6.981818 16.290909-16.290909 20.945455-6.981818 4.654545-16.290909 4.654545-20.945454 4.654545h-27.927273v81.454546c2.327273 13.963636-13.963636 27.927273-34.909091 27.927272z m-86.109091-32.581818H916.945455V167.563636c0-9.309091 6.981818-16.290909 16.290909-16.290909H977.454545l-102.4-88.436363h-6.981818l-104.727272 90.763636h46.545454c9.309091 0 16.290909 6.981818 16.290909 16.290909v93.090909z m-65.163636-107.054545zM919.272727 372.363636h-93.090909c-13.963636 0-23.272727-9.309091-23.272727-23.272727s9.309091-23.272727 23.272727-23.272727h93.090909c13.963636 0 23.272727 9.309091 23.272728 23.272727s-9.309091 23.272727-23.272728 23.272727z" fill="#FFC694" /></svg>