<?xml version="1.0" standalone="no"?><!DOCTYPE svg PUBLIC "-//W3C//DTD SVG 1.1//EN" "http://www.w3.org/Graphics/SVG/1.1/DTD/svg11.dtd"><svg class="icon" width="200px" height="191.40px" viewBox="0 0 1070 1024" version="1.1" xmlns="http://www.w3.org/2000/svg"><path d="M938.691743 416.311559A416.336546 416.336546 0 1 1 522.355197 0a416.361533 416.361533 0 0 1 416.336546 416.311559z" fill="#E9EAEB" /><path d="M532.075214 627.778141l342.099607-188.678265-9.69503 383.253507-342.199555 188.753227z" fill="#9EC7EB" /><path d="M522.355197 1023.725141a12.743466 12.743466 0 0 1-12.743466-13.0683l9.695029-383.203533a12.743466 12.743466 0 0 1 6.596618-10.84444l342.099607-188.678266a12.743466 12.743466 0 0 1 18.890315 11.494107l-9.695029 383.253508a12.743466 12.743466 0 0 1-6.596618 10.84444l-342.124595 188.628291a12.693492 12.693492 0 0 1-6.121861 1.574193z m22.263586-388.325907l-8.970401 353.693663 316.262853-174.360606 8.945414-353.743638z" fill="#2D4978" /><path d="M202.844009 427.730704l342.07462-188.678265 329.256192 200.072424-342.099607 188.678265z" fill="#FFFFFF" /><path d="M532.050227 640.521608a12.793441 12.793441 0 0 1-6.621606-1.849052L196.197417 438.600132a12.743466 12.743466 0 0 1 0.474756-22.063688l341.999659-188.753227a12.693492 12.693492 0 0 1 12.768453 0.274859l329.256192 200.072423a12.743466 12.743466 0 0 1-0.474756 22.063689l-342.099608 188.678265a12.718479 12.718479 0 0 1-6.071886 1.649155z m-303.794247-212.391109l304.094093 184.9052 316.362802-174.485542-304.11908-184.9052z" fill="#2D4978" /><path d="M532.075214 627.753154l-9.720017 383.203533-329.231205-200.072424 9.720017-383.203533z" fill="#9EC7EB" /><path d="M522.355197 1023.725141a12.818428 12.818428 0 0 1-6.621605-1.849052L186.502387 821.803665a12.743466 12.743466 0 0 1-6.121861-11.219248l9.720017-383.203533a12.743466 12.743466 0 0 1 19.365071-10.569581l329.231205 200.072424a12.743466 12.743466 0 0 1 6.121861 11.219248l-9.720016 383.203533a12.743466 12.743466 0 0 1-12.743467 12.418633z m-316.312828-219.887265l304.11908 184.9052 8.970401-353.843586-304.11908-184.9052z" fill="#2D4978" /><path d="M713.657118 761.584539l-181.606891-130.682999 337.726849-197.548718 187.978624 124.261292z" fill="#FFFFFF" /><path d="M713.657118 774.303018a12.743466 12.743466 0 0 1-7.496157-2.498718l-181.606891-130.633026a12.743466 12.743466 0 0 1 1.024475-21.339059L863.305394 422.283497a12.668505 12.668505 0 0 1 13.443107 0.374808l187.978625 124.261292a12.743466 12.743466 0 0 1-0.524731 21.588931l-344.098583 203.920451a12.718479 12.718479 0 0 1-6.446694 1.874039z m-158.268857-142.277055l158.943511 114.316391 319.436226-189.302945-164.415705-108.669286z" fill="#2D4978" /><path d="M194.373352 439.099876L12.766461 308.46685l337.726849-197.548717 187.978624 124.261292z" fill="#FFFFFF" /><path d="M194.373352 451.843342a12.743466 12.743466 0 0 1-7.496157-2.498719L5.320278 318.811547a12.743466 12.743466 0 0 1 1.024475-21.33906L344.071602 99.948757a12.693492 12.693492 0 0 1 13.443108 0.374808l187.978624 124.261291a12.743466 12.743466 0 0 1-0.524731 21.588932L200.870021 450.044264a12.718479 12.718479 0 0 1-6.496669 1.774091z m-158.268856-142.277055L194.92307 423.882677l319.436227-189.302945-164.415705-108.669286z" fill="#2D4978" /><path d="M200.245341 433.502745l324.983383 199.647642-172.136746 120.98797-327.132281-197.998487z" fill="#FFFFFF" /><path d="M353.191926 766.881823a12.693492 12.693492 0 0 1-6.596618-1.849052L19.463028 567.034284a12.743466 12.743466 0 0 1-0.749616-21.314072l174.185696-122.737073a12.718479 12.718479 0 0 1 14.017813-0.44977l324.983382 199.647642a12.743466 12.743466 0 0 1 0.674654 21.289085l-172.061784 121.062932a12.768454 12.768454 0 0 1-7.321247 2.348795z m-303.84422-211.541543l303.344477 183.580879 149.398404-105.146093-301.345502-185.130084z" fill="#2D4978" /><path d="M719.529107 110.918133l324.983383 199.647641-172.061785 121.062932L545.318424 233.630219z" fill="#FFFFFF" /><path d="M872.475692 444.39716a12.718479 12.718479 0 0 1-6.596618-1.849052L538.746793 244.549621a12.743466 12.743466 0 0 1-0.749615-21.314073l174.185695-122.737073a12.718479 12.718479 0 0 1 14.017813-0.44977l324.983383 199.647642a12.743466 12.743466 0 0 1 0.674654 21.289085l-172.061785 121.062932a12.793441 12.793441 0 0 1-7.321246 2.348796z m-303.844221-211.541544l303.31949 183.580879 149.398404-105.146092-301.345501-185.130085z" fill="#2D4978" /><path d="M772.401999 431.903565l-42.128401-31.933628a121.187868 121.187868 0 0 0 0-29.259998l42.128401-31.933628a28.735268 28.735268 0 0 0 7.096362-37.680681l-47.000903-79.359313a30.334448 30.334448 0 0 0-26.161587-14.992314 27.485908 27.485908 0 0 0-10.194773 1.774091l-50.099314 19.514995a170.06281 170.06281 0 0 0-26.161587-14.642493l-7.496157-50.998853a29.684781 29.684781 0 0 0-29.759743-25.33701h-94.951318a29.709768 29.709768 0 0 0-29.709768 24.837266l-7.096362 51.423635a193.650716 193.650716 0 0 0-26.161587 14.642493l-50.149289-19.514995a29.809717 29.809717 0 0 0-10.644543-1.77409 28.71028 28.71028 0 0 0-25.711817 14.642493l-47.47566 79.809082a28.910178 28.910178 0 0 0 7.096362 37.680681l42.128401 31.933628c-0.449769 5.322271-0.874552 10.194773-0.874552 14.642493a86.105854 86.105854 0 0 0 0.874552 14.642493l-41.978478 31.883653a28.735268 28.735268 0 0 0-7.096361 37.680681l47.000902 79.359313a30.359435 30.359435 0 0 0 26.161587 14.992314 27.485908 27.485908 0 0 0 10.194774-1.774091l50.099314-19.514994a170.06281 170.06281 0 0 0 26.161587 14.642492l7.496157 50.998854a29.734755 29.734755 0 0 0 29.709768 25.262048h94.951319a29.709768 29.709768 0 0 0 29.709768-24.837266l7.496156-51.423636a193.700691 193.700691 0 0 0 26.161587-14.642492l50.099315 19.514994a29.809717 29.809717 0 0 0 10.644542 1.774091 28.71028 28.71028 0 0 0 25.711818-14.642493l47.475659-80.258852a28.835216 28.835216 0 0 0-7.546131-37.130963z m-130.807935-46.551133a106.420439 106.420439 0 1 1-106.420439-106.420439 106.720285 106.720285 0 0 1 106.445426 106.420439z" fill="#9EC7EB" /></svg>